<svg width="176" height="45" viewBox="0 0 176 45" fill="none" xmlns="http://www.w3.org/2000/svg">
<path d="M6.072 35H3.344V2.55H11.792C14.3 2.55 16.3607 3.012 17.974 3.936C19.602 4.86 20.8047 6.092 21.582 7.632C22.374 9.172 22.77 10.888 22.77 12.78C22.77 14.6573 22.3667 16.388 21.56 17.972C20.7533 19.556 19.536 20.832 17.908 21.8C16.28 22.7533 14.2413 23.23 11.792 23.23H6.072V35ZM6.072 22.218L4.84 20.832H11.418C13.3833 20.832 14.9967 20.4873 16.258 19.798C17.534 19.094 18.48 18.1407 19.096 16.938C19.712 15.7207 20.02 14.3347 20.02 12.78C20.02 11.2107 19.7267 9.83933 19.14 8.666C18.5533 7.49267 17.6293 6.58333 16.368 5.938C15.1067 5.278 13.4567 4.948 11.418 4.948H4.84L6.072 3.43V22.218ZM38.4935 35.396C36.2055 35.396 34.1815 34.8753 32.4215 33.834C30.6615 32.778 29.2828 31.3333 28.2855 29.5C27.2881 27.6667 26.7895 25.5987 26.7895 23.296C26.7895 20.9787 27.2881 18.918 28.2855 17.114C29.2828 15.31 30.6615 13.8947 32.4215 12.868C34.1815 11.8413 36.2055 11.328 38.4935 11.328C40.7815 11.328 42.8055 11.8413 44.5655 12.868C46.3255 13.8947 47.7041 15.31 48.7015 17.114C49.6988 18.918 50.1975 20.9787 50.1975 23.296C50.1975 25.5987 49.6988 27.6667 48.7015 29.5C47.7041 31.3333 46.3255 32.778 44.5655 33.834C42.8055 34.8753 40.7815 35.396 38.4935 35.396ZM38.4935 32.91C40.2535 32.91 41.8008 32.4993 43.1355 31.678C44.4848 30.8567 45.5408 29.72 46.3035 28.268C47.0661 26.816 47.4475 25.1587 47.4475 23.296C47.4475 21.4187 47.0661 19.7687 46.3035 18.346C45.5408 16.9233 44.4848 15.816 43.1355 15.024C41.8008 14.2173 40.2535 13.814 38.4935 13.814C36.7481 13.814 35.2008 14.2173 33.8515 15.024C32.5021 15.816 31.4461 16.9233 30.6835 18.346C29.9208 19.7687 29.5395 21.4187 29.5395 23.296C29.5395 25.1587 29.9208 26.816 30.6835 28.268C31.4461 29.72 32.5021 30.8567 33.8515 31.678C35.2008 32.4993 36.7481 32.91 38.4935 32.91ZM60.336 0.613998V35H57.652V0.613998H60.336ZM111.869 35.352C111.209 35.352 110.564 35.2713 109.933 35.11C109.317 34.9487 108.76 34.6627 108.261 34.252C107.777 33.8267 107.396 33.2473 107.117 32.514C106.839 31.7807 106.699 30.8493 106.699 29.72C106.699 29.412 106.699 29.0967 106.699 28.774C106.699 28.4367 106.699 28.0847 106.699 27.718V14.034H101.067V11.636H105.115C105.497 11.636 105.797 11.6213 106.017 11.592C106.237 11.5627 106.391 11.4893 106.479 11.372C106.582 11.2547 106.641 11.0713 106.655 10.822C106.685 10.5727 106.699 10.228 106.699 9.788V4.09H109.427V11.636H116.907V14.034H109.427V26.816C109.427 27.168 109.427 27.5053 109.427 27.828C109.427 28.1507 109.427 28.4513 109.427 28.73C109.427 30.05 109.618 31.084 109.999 31.832C110.395 32.58 111.136 32.954 112.221 32.954C112.632 32.954 113.035 32.9173 113.431 32.844C113.827 32.7707 114.128 32.69 114.333 32.602V34.978C114.084 35.0807 113.739 35.1687 113.299 35.242C112.859 35.3153 112.383 35.352 111.869 35.352ZM122.763 35V11.636H125.491V18.522L124.523 18.214C124.611 17.4807 124.824 16.718 125.161 15.926C125.513 15.1193 125.997 14.364 126.613 13.66C127.229 12.956 127.999 12.3913 128.923 11.966C129.862 11.526 130.977 11.306 132.267 11.306C133.206 11.306 133.961 11.3867 134.533 11.548C135.105 11.7093 135.465 11.834 135.611 11.922L134.863 14.562C134.717 14.4593 134.416 14.3273 133.961 14.166C133.507 14.0047 132.854 13.924 132.003 13.924C130.771 13.924 129.737 14.166 128.901 14.65C128.065 15.1193 127.398 15.7353 126.899 16.498C126.401 17.2607 126.041 18.0747 125.821 18.94C125.601 19.7907 125.491 20.612 125.491 21.404V35H122.763ZM141.008 35V11.636H143.692V35H141.008ZM142.372 5.74C141.8 5.74 141.309 5.57867 140.898 5.256C140.488 4.91866 140.282 4.47133 140.282 3.914C140.282 3.37133 140.488 2.93867 140.898 2.616C141.309 2.27866 141.8 2.11 142.372 2.11C142.93 2.11 143.414 2.27866 143.824 2.616C144.235 2.93867 144.44 3.37133 144.44 3.914C144.44 4.47133 144.235 4.91866 143.824 5.256C143.414 5.57867 142.93 5.74 142.372 5.74ZM152.068 44.614V11.636H154.796V44.614H152.068ZM162.848 35.418C161.059 35.418 159.401 34.9853 157.876 34.12C156.351 33.2547 155.119 32.0813 154.18 30.6C153.256 29.1187 152.794 27.454 152.794 25.606C152.794 25.562 152.794 25.5253 152.794 25.496C152.794 25.4667 152.794 25.4373 152.794 25.408L154.796 25.364C154.796 25.3933 154.796 25.4227 154.796 25.452C154.796 25.4813 154.796 25.5107 154.796 25.54C154.796 26.86 155.155 28.0773 155.874 29.192C156.593 30.3067 157.531 31.194 158.69 31.854C159.863 32.514 161.132 32.844 162.496 32.844C164.755 32.844 166.61 32.0447 168.062 30.446C169.529 28.8327 170.262 26.4567 170.262 23.318C170.262 20.1647 169.529 17.7887 168.062 16.19C166.61 14.5913 164.755 13.792 162.496 13.792C161.132 13.792 159.863 14.122 158.69 14.782C157.531 15.442 156.593 16.322 155.874 17.422C155.155 18.522 154.796 19.7393 154.796 21.074L152.794 21.008C152.794 19.16 153.256 17.5027 154.18 16.036C155.119 14.5693 156.351 13.418 157.876 12.582C159.401 11.7313 161.059 11.306 162.848 11.306C164.74 11.306 166.456 11.7753 167.996 12.714C169.536 13.638 170.761 14.9947 171.67 16.784C172.594 18.5733 173.056 20.7513 173.056 23.318C173.056 25.914 172.601 28.114 171.692 29.918C170.797 31.722 169.573 33.0933 168.018 34.032C166.478 34.956 164.755 35.418 162.848 35.418Z" fill="#08171C"/>
<path d="M70.0104 6.60016C68.3604 7.3335 66.2062 9.71683 65.8396 11.2293C65.7021 11.871 65.6562 15.0793 65.7479 18.4252C65.8854 23.6502 66.0687 24.796 66.9396 26.4918C68.5896 29.6085 71.1562 32.1293 74.1354 33.5502C76.7937 34.7877 77.1146 34.8335 84.1729 34.8335C90.6354 34.8335 91.7354 34.7418 93.4771 33.871C96.9604 32.1752 97.4646 30.9377 97.6479 23.9252C97.7854 19.2043 97.6479 17.371 97.0521 15.5835C96.0896 12.696 92.8354 9.02933 89.7646 7.42516C87.5187 6.2335 87.1062 6.18766 79.4062 6.09599C73.4021 6.00433 71.0187 6.09599 70.0104 6.60016ZM87.2896 9.2585C89.5812 9.946 92.9271 12.8335 94.2104 15.3085C95.0354 16.9127 95.1729 17.9668 95.2187 22.7335C95.2187 31.671 94.7604 32.0835 84.2646 32.1293C77.5729 32.1293 77.0687 32.0835 74.9146 30.9835C72.4396 29.746 70.6979 27.9127 69.2312 25.0252C68.4062 23.421 68.2687 22.2752 68.2229 17.2793L68.1771 11.3668L69.6896 10.0377L71.1562 8.7085H78.3062C82.4771 8.7085 86.2354 8.93766 87.2896 9.2585Z" fill="#08171C"/>
<path d="M71.798 11.9627C71.3396 12.7419 72.8521 14.0711 73.4938 13.4294C73.8146 13.1086 73.9063 12.5586 73.7688 12.1919C73.448 11.3669 72.2563 11.2294 71.798 11.9627Z" fill="#68D2E8"/>
<path d="M79.7368 20.0188C80.1206 19.6497 80.5924 19.3917 81.1044 19.2709C81.6164 19.1501 82.1504 19.1708 82.6521 19.3309C83.2516 19.5283 83.7768 19.9121 84.1555 20.4294C84.2945 20.6073 84.4075 20.8051 84.4911 21.0165" stroke="#03AED2" stroke-width="0.758108" stroke-miterlimit="10" stroke-linecap="round"/>
<path d="M75.625 21.1128L77.8722 19.1636L85.4827 26.1248" stroke="#03AED2" stroke-width="0.758108" stroke-linecap="round" stroke-linejoin="round"/>
<path d="M83.1519 23.3616L87.8626 18.2188" stroke="#03AED2" stroke-width="0.758108" stroke-linecap="round" stroke-linejoin="round"/>
<path d="M88.6875 20.9688C88.6875 24.7736 85.6786 27.8438 81.9844 27.8438C78.2901 27.8438 75.2812 24.7736 75.2812 20.9688C75.2812 17.1639 78.2901 14.0938 81.9844 14.0938C85.6786 14.0938 88.6875 17.1639 88.6875 20.9688Z" stroke="#08171C" stroke-width="0.6875"/>
<path d="M89.8104 26.8587C89.1688 27.5462 89.5354 28.417 90.4521 28.417C91.0938 28.417 91.3229 28.1878 91.2313 27.6378C91.0938 26.8128 90.3146 26.4003 89.8104 26.8587Z" fill="#68D2E8"/>
</svg>
