<svg width="360" height="360" viewBox="0 0 360 360" fill="none" xmlns="http://www.w3.org/2000/svg">
  <ellipse cx="178" cy="325" rx="105" ry="20" fill="rgba(0,0,0,0.2)"/>
  <circle cx="118" cy="92" r="34" fill="#7A4B2F"/>
  <circle cx="242" cy="92" r="34" fill="#7A4B2F"/>
  <circle cx="180" cy="120" r="105" fill="#8E5A3A"/>
  <ellipse cx="180" cy="148" rx="62" ry="52" fill="#F4D8B6"/>
  <circle cx="146" cy="120" r="10" fill="#232323"/>
  <circle cx="214" cy="120" r="10" fill="#232323"/>
  <ellipse cx="180" cy="146" rx="10" ry="8" fill="#232323"/>
  <path d="M170 160 Q180 172 190 160" stroke="#232323" stroke-width="5" fill="none" stroke-linecap="round"/>
  <rect x="120" y="210" width="120" height="95" rx="40" fill="#8E5A3A"/>
  <circle cx="126" cy="250" r="26" fill="#7A4B2F"/>
  <rect x="236" y="208" width="40" height="85" rx="18" fill="#7A4B2F"/>
  <circle cx="256" cy="294" r="18" fill="#7A4B2F"/>
  <ellipse cx="162" cy="312" rx="25" ry="20" fill="#7A4B2F"/>
  <ellipse cx="232" cy="312" rx="25" ry="20" fill="#7A4B2F"/>
  <g transform="translate(218 198) rotate(-18)">
    <rect x="0" y="0" width="82" height="112" rx="14" fill="#F8A23D"/>
    <rect x="8" y="12" width="66" height="84" rx="10" fill="#FEB85F"/>
    <rect x="25" y="-16" width="30" height="20" rx="8" fill="#D7852A"/>
  </g>
  <g transform="translate(126 206) rotate(-8)">
    <rect x="0" y="0" width="108" height="72" rx="12" fill="#F7F7F7" stroke="#E5E5E5" stroke-width="3"/>
    <path d="M8 8 L100 8 L54 38 Z" fill="#DFF3FF"/>
    <circle cx="88" cy="52" r="8" fill="#4E9FFF"/>
  </g>
</svg>
