<svg width="234" height="328" viewBox="0 0 234 328" fill="none" xmlns="http://www.w3.org/2000/svg">
<g clip-path="url(#clip0_48_13)">
<path opacity="0.18" d="M67.0089 78.4052C54.8063 91.1417 50.7498 109.641 40.391 123.919C28.2819 140.618 7.33318 152.083 2.96291 172.256C-1.82569 194.471 16.0792 214.836 34.1383 228.596C42.8348 235.229 52.1753 241.625 57.8336 250.982C61.3727 256.838 63.2551 263.52 66.0898 269.751C75.0835 289.637 94.9589 304.812 116.761 305.918C138.563 307.025 160.854 292.626 166.76 271.617C169.644 261.346 168.923 249.853 174.51 240.794C181.82 228.91 197.171 225.244 208.272 216.795C229.507 200.646 230.68 164.402 210.535 146.893C192.872 131.559 163.326 129.55 153.396 108.364C150.705 102.623 149.94 96.167 147.584 90.2831C135.326 59.6856 88.0457 56.4437 67.0089 78.4052Z" fill="#68D2E8" fill-opacity="0.5"/>
<path d="M105.417 156.63C111.955 156.63 117.256 151.329 117.256 144.79C117.256 138.252 111.955 132.951 105.417 132.951C98.8778 132.951 93.5771 138.252 93.5771 144.79C93.5771 151.329 98.8778 156.63 105.417 156.63Z" fill="#3F3D56"/>
<path d="M145.509 234.37C145.509 234.37 144.843 249.231 143.885 252.11C142.927 254.989 144.067 256.31 141.061 257.064C138.056 257.818 139.113 241.619 139.113 241.619L140.126 235.41L145.509 234.37Z" fill="url(#paint0_linear_48_13)"/>
<path d="M114.086 238.691L121.037 279.383H126.982L128.468 255.941L129.839 285.371H136.361C136.361 285.371 141.97 253.134 140.935 247.2C140.651 245.244 140.035 243.351 139.113 241.603L114.086 238.691Z" fill="#25233A"/>
<path d="M118.186 175.25C117.944 172.107 118.115 168.766 119.804 166.108C120.492 165.039 121.397 164.126 122.46 163.428C123.523 162.73 124.72 162.263 125.974 162.057C129.591 161.506 133.13 163.158 136.432 164.754C141.276 167.132 146.153 169.531 150.413 172.828C154.673 176.125 158.333 180.446 159.946 185.592C160.671 188.098 161.058 190.69 161.096 193.298C161.228 195.731 161.06 198.172 160.595 200.564C159.758 204.228 157.942 207.596 155.341 210.31C152.741 213.024 149.453 214.982 145.828 215.975C137.572 218.122 128.165 215.089 120.696 219.19C120.207 219.53 119.638 219.738 119.045 219.795C118.642 219.756 118.26 219.598 117.948 219.34C117.636 219.082 117.408 218.736 117.294 218.348C117.083 217.565 117.083 216.741 117.294 215.959C117.817 213.529 119.04 211.306 120.812 209.563C123.09 207.334 126.129 206.046 128.616 204.059C129.04 203.777 129.363 203.369 129.541 202.892C129.838 201.791 128.693 200.883 127.642 200.476C126.591 200.068 125.336 199.705 124.918 198.665C124.576 197.823 124.918 196.887 125.154 196.006C126.107 192.153 124.053 189.566 121.934 186.71C119.474 183.407 118.494 179.279 118.186 175.25Z" fill="#3F3D56"/>
<path d="M136.515 176.39C136.515 176.39 140.225 182.593 144.49 186.699C148.756 190.805 156.022 198.186 151.393 203.789C148.612 207.153 145.07 209.808 141.061 211.534L131.666 202.094V186.682L136.515 176.39Z" fill="#25233A"/>
<path d="M103.953 170.88L112.913 170.214C112.913 170.214 110.398 187.607 122.628 193.254C134.858 198.902 142.382 200.08 143.213 204.439C144.045 208.798 147.281 233.957 147.281 233.957L141.122 235.394L140.935 215.937L141.171 240.48C141.171 240.48 127.829 247.965 123.988 246.49C120.146 245.015 112.082 243.788 112.275 231.282C112.467 218.777 118.329 209.926 111.967 200.41C105.604 190.893 103.787 175.388 103.953 170.88Z" fill="#68D2E8"/>
<path d="M103.953 170.88L112.913 170.214C112.913 170.214 110.398 187.607 122.628 193.254C134.858 198.902 142.382 200.08 143.213 204.439C144.045 208.798 147.281 233.957 147.281 233.957L141.122 235.394L140.935 215.937L141.171 240.48C141.171 240.48 127.829 247.965 123.988 246.49C120.146 245.015 112.082 243.788 112.275 231.282C112.467 218.777 118.329 209.926 111.967 200.41C105.604 190.893 103.787 175.388 103.953 170.88Z" fill="#FDDE55"/>
<path d="M125.287 194.471C125.287 194.471 125.628 199.645 128.952 199.518C132.277 199.391 132.282 197.729 132.282 197.729L134.396 188.713L125.287 189.264C125.287 189.264 126.321 193.084 125.287 194.471Z" fill="url(#paint1_linear_48_13)"/>
<path d="M125.699 191.631C125.699 191.631 125.281 194.295 126.993 195.049C128.705 195.803 131.462 194.856 132.128 194.096L132.282 197.707L133.823 191.13L125.699 191.631Z" fill="#222A72"/>
<path d="M122.435 176.214C122.435 176.214 120.514 189.908 127.417 192.676C134.319 195.445 136.432 188.014 137.324 184.448C138.216 180.881 135.634 168.101 130.169 170.088C126.968 171.189 124.24 173.351 122.435 176.214Z" fill="url(#paint2_linear_48_13)"/>
<path d="M106.215 170.715C106.215 170.715 106.859 165.926 106.875 165.838C106.932 165.394 106.867 164.942 106.687 164.532C106.506 164.122 106.217 163.768 105.851 163.51C105.191 163.015 104.464 161.859 104.464 159.189C104.464 156.52 107.293 153.63 108.46 154.786C109.627 155.942 109.633 156.856 110.717 157.026C111.801 157.197 110.965 159.949 110.717 160.879C110.469 161.809 112.049 170.297 112.049 170.297L106.215 170.715Z" fill="url(#paint3_linear_48_13)"/>
<path d="M140.935 215.959L144.513 234.601L141.122 235.394L140.935 215.959Z" fill="url(#paint4_linear_48_13)"/>
<path d="M129.838 285.371C129.838 285.371 128.292 300.618 130.829 313.008H132.596L136.361 285.371H129.838ZM121.037 279.383L124.582 310.476L125.881 309.925C125.881 309.925 128.314 287.909 128.116 285.784C127.918 283.66 126.982 279.372 126.982 279.372L121.037 279.383Z" fill="#25233A"/>
<path d="M125.881 309.936C125.881 309.936 126.668 311.268 126.58 312.215C126.514 312.864 122.023 318.435 118.814 321.44C115.346 324.687 111.983 323.487 111.983 323.487C110.728 323.361 110.079 320.477 111.036 319.635C113.124 317.846 115.469 316.384 117.994 315.297C123.746 312.864 124.599 310.454 124.599 310.454L125.881 309.936ZM130.829 313.008C130.484 314.089 130.358 315.229 130.461 316.36C130.681 317.972 137.616 325.865 137.616 325.865C137.616 325.865 143.296 329.553 145.289 326.383C147.281 323.212 139.41 319.007 137.847 318.126C136.284 317.246 132.596 313.013 132.596 313.013L130.829 313.008Z" fill="#25233A"/>
<path d="M91.095 126.489C91.849 128.904 93.343 131.022 95.3657 132.542C97.3885 134.062 99.8378 134.908 102.367 134.96C105.532 134.96 109.094 133.755 112.396 129.764C121.203 119.13 104.993 100.389 126.828 77.7281C148.663 55.0676 150.936 14.8985 111.719 12.229C81.771 10.2034 69.5188 28.8294 66.0732 40.4872V52.3045L87.11 60.5607C87.11 60.5607 95.1571 36.1444 108.405 39.2542C121.654 42.3641 109.176 64.2595 100.815 72.5817C82.393 90.927 87.721 116.004 91.095 126.489Z" fill="#3F3D56"/>
<path d="M91.0949 111.524C91.854 113.936 93.3493 116.05 95.3709 117.569C97.3926 119.088 99.8391 119.936 102.367 119.994C105.532 119.994 109.093 118.558 112.396 114.573C121.202 103.933 103.87 93.3599 125.71 70.6994C147.551 48.0389 150.952 3.10321 111.735 0.450221C72.5184 -2.20277 66.0896 40.5038 66.0896 40.5038L87.1264 48.76C87.1264 48.76 95.1569 24.3712 108.405 27.47C121.654 30.5688 109.176 52.4697 100.815 60.7975C82.3928 79.1262 87.7208 101.038 91.0949 111.524Z" fill="#68D2E8"/>
<path d="M105.417 148.886C111.955 148.886 117.256 143.585 117.256 137.046C117.256 130.507 111.955 125.207 105.417 125.207C98.8778 125.207 93.5771 130.507 93.5771 137.046C93.5771 143.585 98.8778 148.886 105.417 148.886Z" fill="#68D2E8"/>
<path d="M58.2076 142.578C59.384 140.061 58.2972 137.066 55.7801 135.89C53.263 134.714 50.2689 135.8 49.0925 138.318C47.9161 140.835 49.0029 143.829 51.52 145.005C54.0371 146.182 57.0312 145.095 58.2076 142.578Z" fill="#3F3D56"/>
<path d="M45.284 135.224C45.9372 136.079 46.8417 136.707 47.8704 137.021C48.8991 137.335 50.0003 137.319 51.0193 136.975C52.2852 136.523 53.5292 135.516 54.2722 133.441C56.2427 127.937 47.0508 122.779 52.4944 110.555C57.938 98.3302 53.0118 81.9334 36.9617 86.5788C24.6985 90.1125 22.5024 99.3319 22.8161 104.495L24.5279 109.206L34.1271 109.448C34.1271 109.448 33.7969 98.5338 39.5432 97.8513C45.2895 97.1688 43.4786 107.731 41.343 112.272C36.6425 122.279 42.4108 131.526 45.284 135.224Z" fill="#3F3D56"/>
<path d="M43.1154 129.241C43.7661 130.097 44.6696 130.727 45.6979 131.041C46.7262 131.355 47.8273 131.338 48.8452 130.992C50.1167 130.54 51.3276 129.445 52.0651 127.37C54.0411 121.866 45.5868 120.132 51.0248 107.907C56.4629 95.6826 51.3056 77.2383 35.25 81.8673C19.1945 86.4962 22.8437 104.495 22.8437 104.495L32.4429 104.731C32.4429 104.731 32.1182 93.8222 37.859 93.1397C43.5998 92.4572 41.7944 103.02 39.6588 107.555C34.9528 117.562 40.2368 125.543 43.1154 129.241Z" fill="#68D2E8"/>
<path d="M54.7441 141.874C57.2396 140.653 58.2725 137.64 57.051 135.144C55.8295 132.649 52.8163 131.616 50.3208 132.837C47.8253 134.059 46.7924 137.072 48.0139 139.567C49.2354 142.063 52.2486 143.096 54.7441 141.874Z" fill="#68D2E8"/>
<path d="M31.4852 188.708C31.695 189.68 31.612 190.692 31.2468 191.617C30.8816 192.542 30.2505 193.338 29.4333 193.904C28.616 194.47 27.6492 194.782 26.655 194.799C25.6609 194.817 24.6838 194.539 23.8474 194.001C23.011 193.464 22.3526 192.69 21.9555 191.778C21.5584 190.867 21.4403 189.858 21.6162 188.879C21.7921 187.901 22.254 186.996 22.9437 186.28C23.6334 185.564 24.5199 185.068 25.4912 184.855C26.1378 184.713 26.8063 184.699 27.4581 184.816C28.1098 184.933 28.7321 185.177 29.2891 185.535C29.8461 185.893 30.3269 186.358 30.7038 186.902C31.0806 187.447 31.3462 188.06 31.4852 188.708Z" fill="#3F3D56"/>
<path d="M18.9577 183.495C19.4912 184.43 20.3049 185.173 21.2838 185.619C22.2626 186.066 23.3571 186.193 24.4123 185.983C25.7278 185.703 27.0983 184.883 28.1001 182.912C30.7806 177.694 22.3428 171.392 29.3385 159.987C36.3343 148.583 33.6097 131.702 17.0863 134.184C4.46535 136.077 1.08031 144.928 0.717041 150.085L1.81787 154.984L11.285 156.492C11.285 156.492 12.3858 145.633 18.1761 145.71C23.9665 145.787 20.7796 156.019 18.0716 160.235C12.0886 169.532 16.5965 179.455 18.9577 183.495Z" fill="#3F3D56"/>
<path d="M17.5927 177.281C18.1268 178.215 18.9406 178.958 19.9193 179.404C20.898 179.85 21.9921 179.978 23.0473 179.769C24.3628 179.489 25.7058 178.558 26.7131 176.604C29.3936 171.386 21.2365 168.579 28.2322 157.175C35.228 145.77 32.5309 126.803 16.0075 129.285C-0.515846 131.768 0.717079 150.086 0.717079 150.086L10.1842 151.583C10.1842 151.583 11.285 140.723 17.0753 140.8C22.8657 140.877 19.6788 151.109 16.9708 155.325C11.0153 164.633 15.226 173.241 17.5927 177.281Z" fill="#68D2E8"/>
<path d="M26.231 191.596C29.0017 191.389 31.0802 188.975 30.8733 186.205C30.6664 183.434 28.2526 181.355 25.4819 181.562C22.7112 181.769 20.6328 184.183 20.8397 186.954C21.0465 189.724 23.4603 191.803 26.231 191.596Z" fill="#68D2E8"/>
<path d="M178.748 150.9C178.526 151.87 178.022 152.752 177.299 153.435C176.576 154.118 175.666 154.572 174.685 154.738C173.705 154.904 172.697 154.776 171.789 154.37C170.881 153.963 170.114 153.297 169.584 152.455C169.055 151.612 168.787 150.632 168.815 149.637C168.843 148.643 169.165 147.679 169.74 146.868C170.316 146.056 171.119 145.434 172.048 145.079C172.978 144.724 173.991 144.652 174.961 144.873C176.262 145.171 177.392 145.973 178.102 147.103C178.812 148.233 179.044 149.599 178.748 150.9Z" fill="#3F3D56"/>
<path d="M169.65 140.839C169.732 141.909 170.148 142.927 170.839 143.748C171.53 144.57 172.462 145.154 173.503 145.418C174.807 145.726 176.403 145.556 178.148 144.218C182.799 140.646 177.867 131.344 189.063 124.023C200.258 116.703 205.025 100.273 189.013 95.457C176.794 91.7748 169.947 98.3302 167.415 102.838L166.314 107.726L174.251 113.131C174.251 113.131 179.893 103.774 185.089 106.328C190.285 108.882 183.036 116.758 178.781 119.417C169.408 125.273 169.253 136.171 169.65 140.839Z" fill="#3F3D56"/>
<path d="M171.07 134.635C171.151 135.706 171.567 136.724 172.258 137.546C172.95 138.368 173.882 138.951 174.923 139.215C176.233 139.529 177.851 139.259 179.596 137.921C184.247 134.349 178.071 128.322 189.272 121.002C200.473 113.681 206.131 95.3964 190.169 90.5638C174.207 85.7312 167.454 102.838 167.454 102.838L175.391 108.243C175.391 108.243 181.032 98.886 186.228 101.434C191.424 103.983 184.175 111.892 179.926 114.529C170.525 120.385 170.657 129.973 171.07 134.635Z" fill="#68D2E8"/>
<path d="M179.24 148.425C180.267 145.843 179.007 142.918 176.426 141.89C173.844 140.863 170.919 142.123 169.891 144.704C168.864 147.286 170.124 150.211 172.706 151.239C175.287 152.266 178.213 151.006 179.24 148.425Z" fill="#68D2E8"/>
<path d="M204.293 195.907C203.866 196.511 203.27 196.974 202.58 197.238C201.89 197.503 201.137 197.557 200.417 197.394C199.696 197.231 199.04 196.858 198.531 196.322C198.022 195.786 197.684 195.111 197.559 194.383C197.433 193.655 197.527 192.906 197.827 192.23C198.127 191.555 198.621 190.984 199.245 190.59C199.87 190.195 200.598 189.994 201.337 190.013C202.075 190.032 202.792 190.269 203.396 190.695C203.797 190.978 204.139 191.337 204.401 191.753C204.664 192.168 204.842 192.631 204.925 193.115C205.008 193.599 204.995 194.095 204.887 194.574C204.778 195.053 204.577 195.506 204.293 195.907Z" fill="#3F3D56"/>
<path d="M200.88 186.418C200.636 187.179 200.637 187.998 200.883 188.758C201.128 189.519 201.607 190.183 202.251 190.656C202.761 191.008 203.346 191.235 203.959 191.32C204.573 191.405 205.198 191.346 205.784 191.146C209.995 190.007 209.23 182.213 218.994 180.342C228.759 178.47 236.679 168.519 227.036 160.681C219.677 154.698 213.116 157.268 210.1 159.652L207.947 162.695L211.877 168.662C211.877 168.662 218.4 163.829 221.234 167.044C224.069 170.258 216.875 173.649 213.198 174.265C205.118 175.641 201.92 183.088 200.88 186.418Z" fill="#3F3D56"/>
<path d="M203.61 182.549C203.365 183.311 203.366 184.13 203.612 184.891C203.858 185.653 204.337 186.318 204.981 186.792C205.79 187.376 206.979 187.651 208.553 187.222C212.764 186.082 210.204 180.193 219.996 178.327C229.788 176.461 238.837 165.475 229.193 157.637C219.55 149.799 210.105 159.652 210.105 159.652L214.035 165.613C214.035 165.613 220.557 160.78 223.392 164C226.227 167.22 219.033 170.605 215.356 171.221C207.27 172.597 204.65 179.224 203.61 182.549Z" fill="#68D2E8"/>
<path d="M205.733 193.853C206.902 192.148 206.469 189.819 204.764 188.649C203.06 187.479 200.73 187.913 199.561 189.617C198.391 191.322 198.825 193.651 200.529 194.821C202.233 195.991 204.563 195.557 205.733 193.853Z" fill="#68D2E8"/>
<path d="M105.741 295.323C105.672 295.323 105.603 295.304 105.543 295.268C105.497 295.242 105.456 295.207 105.423 295.165C105.39 295.123 105.366 295.075 105.353 295.024C105.34 294.972 105.337 294.918 105.345 294.866C105.353 294.813 105.372 294.763 105.4 294.717C109.571 287.089 112.973 279.065 115.555 270.763C119.639 257.801 123.492 238.454 118.638 219.883C109.281 184.134 107.112 162.184 107.079 161.963C107.07 161.859 107.102 161.755 107.169 161.675C107.236 161.594 107.332 161.544 107.437 161.534C107.54 161.525 107.642 161.557 107.721 161.623C107.801 161.689 107.851 161.783 107.86 161.886C107.86 162.106 110.062 184.002 119.386 219.68C124.29 238.438 120.41 257.95 116.287 271.017C113.685 279.364 110.263 287.434 106.072 295.108C106.04 295.17 105.993 295.222 105.935 295.259C105.877 295.297 105.81 295.319 105.741 295.323Z" fill="white"/>
</g>
<defs>
<linearGradient id="paint0_linear_48_13" x1="138.931" y1="245.72" x2="145.509" y2="245.72" gradientUnits="userSpaceOnUse">
<stop stop-color="#ECC4D7"/>
<stop offset="0.42" stop-color="#EFD4D1"/>
<stop offset="1" stop-color="#F2EAC9"/>
</linearGradient>
<linearGradient id="paint1_linear_48_13" x1="133.262" y1="182.125" x2="128.848" y2="193.364" gradientUnits="userSpaceOnUse">
<stop stop-color="#ECC4D7"/>
<stop offset="0.42" stop-color="#EFD4D1"/>
<stop offset="1" stop-color="#F2EAC9"/>
</linearGradient>
<linearGradient id="paint2_linear_48_13" x1="122.188" y1="181.58" x2="137.495" y2="181.58" gradientUnits="userSpaceOnUse">
<stop stop-color="#ECC4D7"/>
<stop offset="0.42" stop-color="#EFD4D1"/>
<stop offset="1" stop-color="#F2EAC9"/>
</linearGradient>
<linearGradient id="paint3_linear_48_13" x1="104.464" y1="162.618" x2="112.049" y2="162.618" gradientUnits="userSpaceOnUse">
<stop stop-color="#ECC4D7"/>
<stop offset="0.42" stop-color="#EFD4D1"/>
<stop offset="1" stop-color="#F2EAC9"/>
</linearGradient>
<linearGradient id="paint4_linear_48_13" x1="146.901" y1="223.593" x2="114.311" y2="236.754" gradientUnits="userSpaceOnUse">
<stop stop-opacity="0"/>
<stop offset="1"/>
</linearGradient>
<clipPath id="clip0_48_13">
<rect width="232.61" height="327.342" fill="white" transform="translate(0.695068 0.329102)"/>
</clipPath>
</defs>
</svg>
