<svg width="31" height="23" viewBox="0 0 31 23" fill="none" xmlns="http://www.w3.org/2000/svg">
<g clip-path="url(#clip0_42_415)">
<path fill-rule="evenodd" clip-rule="evenodd" d="M0.0742188 0H30.7409V23H0.0742188V0Z" fill="#229E45"/>
<path fill-rule="evenodd" clip-rule="evenodd" d="M15.4746 20.8917L29.9215 11.5144L15.3883 2.1084L0.893555 11.5336L15.4746 20.8917Z" fill="#F8E509"/>
<path fill-rule="evenodd" clip-rule="evenodd" d="M21.7707 11.5C21.7707 14.8685 19.0346 17.5998 15.6565 17.5998C14.4494 17.5979 13.2699 17.2381 12.2671 16.566C11.2644 15.8938 10.4834 14.9395 10.023 13.8236C9.56258 12.7077 9.44333 11.4803 9.68035 10.2966C9.91736 9.11296 10.5 8.02613 11.3546 7.17354C12.2092 6.32095 13.2974 5.74087 14.4816 5.50664C15.6658 5.27241 16.8929 5.39455 18.0078 5.8576C19.1226 6.32066 20.0751 7.10385 20.7449 8.10816C21.4147 9.11248 21.7716 10.2928 21.7707 11.5Z" fill="#2B49A3"/>
<path fill-rule="evenodd" clip-rule="evenodd" d="M13.649 15.156L13.4573 15.0457L13.2657 15.1416L13.3088 14.926L13.1555 14.763L13.3711 14.7391L13.4765 14.5474L13.5675 14.7487L13.7784 14.787L13.6203 14.9307M17.7411 16.191L17.5542 16.0807L17.3625 16.1766L17.4009 15.961L17.2523 15.8028L17.468 15.7789L17.5686 15.5824L17.6644 15.7837L17.8753 15.822L17.7123 15.9705M15.9778 14.533L15.8148 14.4372L15.6471 14.5235L15.6855 14.3366L15.5513 14.1976L15.743 14.1785L15.8292 14.0059L15.9059 14.1832L16.0928 14.2168L15.949 14.3462M20.1178 13.9389L19.9548 13.843L19.7871 13.9293L19.8255 13.7424L19.6961 13.6082L19.883 13.5891L19.9692 13.4214L20.0459 13.5939L20.228 13.6274L20.089 13.752M15.9059 12.6978L15.7142 12.5924L15.5225 12.6882L15.5609 12.4678L15.4123 12.3097L15.628 12.2857L15.7286 12.0893L15.8244 12.2905L16.0353 12.3289L15.8723 12.4822M10.8603 10.8051L10.6686 10.6997L10.4769 10.7955L10.5248 10.5751L10.3667 10.417L10.5871 10.393L10.683 10.1966L10.7788 10.3978L10.9896 10.4362L10.8315 10.5847M11.4688 13.3255L11.2771 13.2153L11.0855 13.3112L11.1286 13.0955L10.9753 12.9374L11.1909 12.9087L11.2915 12.717L11.3873 12.9182L11.5982 12.9566L11.44 13.1051M17.765 9.88033L17.5925 9.78449L17.42 9.87074L17.4584 9.67908L17.3242 9.53533L17.5159 9.51137L17.6069 9.33887L17.6884 9.52095L17.88 9.55449L17.7363 9.68387M17.4153 11.5191L17.2859 11.4424L17.1469 11.5095L17.1757 11.3562L17.0703 11.246L17.2236 11.2268L17.2955 11.0926L17.3578 11.2364L17.5015 11.2603L17.3961 11.3657M10.5823 13.7807L10.453 13.7089L10.3236 13.7712L10.3523 13.6274L10.2517 13.522L10.3955 13.5028L10.4625 13.3735L10.5248 13.5076L10.6686 13.5364L10.5584 13.6322M20.1513 14.3653L20.0459 14.3126L19.9405 14.3605L19.9644 14.2503L19.883 14.1737L19.998 14.1593L20.0555 14.0635L20.1034 14.1593L20.2232 14.1832L20.1321 14.2551" fill="#FFFFEF"/>
<path fill-rule="evenodd" clip-rule="evenodd" d="M10.5823 13.7808L10.453 13.709L10.3236 13.7712L10.3523 13.6275L10.2517 13.5221L10.3955 13.5029L10.4625 13.3735L10.5248 13.5077L10.6686 13.5365L10.5584 13.6323" fill="#FFFFEF"/>
<path fill-rule="evenodd" clip-rule="evenodd" d="M10.5823 13.7807L10.453 13.7089L10.3236 13.7712L10.3523 13.6274L10.2517 13.522L10.3955 13.5028L10.4625 13.3735L10.5248 13.5076L10.6686 13.5364L10.5584 13.6322M12.5853 13.776L12.4607 13.7089L12.3313 13.7712L12.36 13.6274L12.2594 13.522L12.4032 13.5028L12.4703 13.3735L12.5325 13.5076L12.6763 13.5316L12.5661 13.6322M12.3361 14.4468L12.2115 14.3749L12.0821 14.442L12.1109 14.2982L12.0103 14.188L12.154 14.1689L12.2211 14.0395L12.2834 14.1737L12.4271 14.2024L12.3169 14.2982M16.5048 13.2345L16.3803 13.1578L16.2461 13.2249L16.2748 13.0812L16.179 12.971L16.3228 12.9566L16.3898 12.8272L16.4473 12.9614L16.5911 12.9853L16.4857 13.086M15.283 13.2297L15.1536 13.1578L15.0242 13.2249L15.053 13.0812L14.9571 12.971L15.1009 12.9566L15.168 12.8224L15.2255 12.9614L15.3692 12.9853L15.2638 13.086M11.9671 12.808L11.8857 12.7601L11.8042 12.7985L11.8234 12.7074L11.7611 12.6403L11.8521 12.6307L11.8905 12.5493L11.9288 12.6355L12.0198 12.6499L11.9528 12.7122M19.9932 14.8876L19.8686 14.8157L19.7392 14.8828L19.768 14.7391L19.6673 14.6289L19.8111 14.6097L19.8782 14.4803L19.9405 14.6145L20.0842 14.6432L19.974 14.7391M18.9773 15.0266L18.8719 14.9595L18.7617 15.017L18.7857 14.8924L18.7042 14.8062L18.824 14.7918L18.8815 14.6816L18.9294 14.7966L19.0492 14.8157L18.9582 14.902M19.4565 15.0122L19.3607 14.9547L19.26 15.0026L19.2792 14.8924L19.2025 14.811L19.3128 14.7966L19.3655 14.7007L19.4134 14.7966L19.5236 14.8205L19.4421 14.8972M20.8365 13.8047L20.7407 13.7568L20.6448 13.8047L20.6688 13.6945L20.5921 13.613L20.7023 13.5987L20.7503 13.5028L20.7982 13.6035L20.8988 13.6226L20.8221 13.6993M18.963 15.7022L18.8432 15.6351L18.7138 15.6926L18.7425 15.5585L18.6467 15.4626L18.7905 15.4482L18.8528 15.3285L18.9103 15.453L19.054 15.477L18.9438 15.568M18.9725 16.2485L18.8575 16.1814L18.7425 16.2437L18.7713 16.1095L18.6803 16.0137L18.8096 15.9945L18.8671 15.8747L18.9198 15.9993L19.0492 16.0232L18.9534 16.1191M18.043 15.0122L17.9519 14.9547L17.8561 15.0026L17.8753 14.8972L17.8034 14.8157L17.9088 14.8062L17.9567 14.7103L18.0046 14.8062L18.11 14.8253L18.0334 14.902M17.1805 15.0122L17.0846 14.9547L16.9888 15.0026L17.0128 14.8972L16.9361 14.8157L17.0463 14.8062L17.0942 14.7103L17.1421 14.8062L17.2428 14.8253L17.1661 14.902M15.7094 13.7232L15.6136 13.6705L15.5178 13.7185L15.5417 13.6082L15.465 13.5316L15.5705 13.5172L15.6184 13.4214L15.6663 13.5172L15.7717 13.5412L15.695 13.613M15.8723 16.3443L15.7957 16.3012L15.7094 16.3443L15.7286 16.2485L15.6663 16.1814L15.7573 16.1718L15.8005 16.0903L15.8388 16.1766L15.9298 16.191L15.8628 16.2532M13.649 12.1037L13.4573 11.9935L13.2657 12.0893L13.3088 11.8737L13.1555 11.7155L13.3711 11.6868L13.4765 11.4951L13.5675 11.6964L13.7784 11.7347L13.6203 11.8832" fill="#FFFFEF"/>
<path fill-rule="evenodd" clip-rule="evenodd" d="M21.3684 13.6947C21.4871 13.3866 21.58 13.0693 21.6463 12.7459C18.3975 9.89487 14.7798 8.43341 10.2086 8.73529C10.0428 9.05609 9.90644 9.39129 9.80127 9.73674C15.2159 9.21924 19.1929 11.6151 21.3684 13.6947Z" fill="white"/>
<path d="M19.9116 12.0943L20.0218 12.1566C20.0054 12.1891 20.0003 12.2262 20.0075 12.262C20.0187 12.2966 20.0427 12.3258 20.0745 12.3434C20.1081 12.3674 20.1416 12.3818 20.1704 12.377C20.1991 12.377 20.2183 12.3626 20.2327 12.3434C20.241 12.3307 20.2444 12.3154 20.2422 12.3003C20.2383 12.2826 20.2301 12.2661 20.2183 12.2524C20.2087 12.238 20.1847 12.2045 20.1464 12.1661C20.107 12.1255 20.0775 12.0763 20.0602 12.0224C20.0482 11.9816 20.0513 11.9379 20.0689 11.8992C20.0865 11.8605 20.1174 11.8294 20.156 11.8116C20.1909 11.797 20.2294 11.7937 20.2662 11.802C20.3113 11.8123 20.3537 11.8319 20.3908 11.8595C20.4579 11.9074 20.501 11.9553 20.5154 12.0128C20.522 12.0397 20.5229 12.0677 20.5179 12.0949C20.513 12.1222 20.5023 12.1481 20.4866 12.1709L20.3716 12.0991C20.386 12.0703 20.3908 12.0416 20.3812 12.0176C20.3764 11.9936 20.3572 11.9697 20.3237 11.9505C20.2991 11.9307 20.269 11.919 20.2375 11.917C20.2288 11.9167 20.2202 11.9188 20.2126 11.923C20.205 11.9272 20.1987 11.9334 20.1943 11.9409C20.1847 11.9553 20.1847 11.9697 20.1895 11.9888C20.1943 12.008 20.2183 12.0463 20.2662 12.0943C20.3141 12.1422 20.3429 12.1853 20.362 12.2141C20.3792 12.2455 20.3869 12.2811 20.3843 12.3168C20.3818 12.3525 20.3691 12.3867 20.3477 12.4153C20.3252 12.4479 20.2935 12.4729 20.2566 12.4872C20.2207 12.5037 20.1805 12.5087 20.1416 12.5016C20.0985 12.492 20.0554 12.4728 20.0075 12.4393C19.9356 12.3913 19.8925 12.3386 19.8781 12.2811C19.8625 12.2159 19.8728 12.1472 19.9068 12.0895L19.9116 12.0943ZM19.3558 11.7301L19.4756 11.7924C19.4607 11.8255 19.4574 11.8626 19.466 11.8978C19.4783 11.9307 19.5021 11.958 19.5331 11.9745C19.5714 11.9984 19.6002 12.008 19.6289 12.0032C19.6577 12.0032 19.6768 11.9888 19.6912 11.9649C19.6985 11.9535 19.7018 11.94 19.7008 11.9266C19.7008 11.9122 19.6912 11.893 19.6768 11.8786C19.6523 11.849 19.6267 11.8203 19.6002 11.7924C19.5475 11.7397 19.5139 11.6966 19.5043 11.6582C19.4965 11.6336 19.4941 11.6075 19.4975 11.5818C19.5008 11.5562 19.5097 11.5315 19.5235 11.5097C19.5417 11.4801 19.5684 11.4567 19.6002 11.4426C19.6331 11.4274 19.6698 11.4224 19.7056 11.4282C19.7499 11.4357 19.7923 11.452 19.8302 11.4761C19.902 11.5241 19.9452 11.572 19.9595 11.6247C19.9683 11.6516 19.9711 11.6801 19.9678 11.7082C19.9645 11.7364 19.9551 11.7634 19.9404 11.7876L19.8206 11.7205C19.835 11.687 19.8397 11.663 19.8302 11.6391C19.8206 11.6151 19.8014 11.5911 19.7679 11.572C19.7414 11.5529 19.7095 11.5429 19.6768 11.5432C19.669 11.5438 19.6613 11.5462 19.6547 11.5504C19.648 11.5546 19.6424 11.5603 19.6385 11.5672C19.6289 11.5816 19.6289 11.5959 19.6337 11.6151C19.6385 11.6343 19.6672 11.6726 19.7152 11.7205C19.7631 11.7684 19.7966 11.8068 19.811 11.8355C19.8302 11.8656 19.8404 11.9005 19.8404 11.9361C19.8404 11.9718 19.8302 12.0067 19.811 12.0368C19.7903 12.0702 19.7604 12.0968 19.7247 12.1134C19.6888 12.13 19.6486 12.135 19.6097 12.1278C19.5604 12.1195 19.5132 12.1016 19.4708 12.0751C19.4088 12.0421 19.3611 11.9875 19.3366 11.9218C19.3181 11.8578 19.325 11.7891 19.3558 11.7301ZM18.6754 11.548L19.0252 10.973L19.4468 11.2366L19.3893 11.3324L19.0827 11.1407L19.006 11.2701L19.2935 11.4474L19.2312 11.5432L18.9437 11.3659L18.8479 11.5241L19.1689 11.7157L19.1114 11.8116L18.6754 11.548ZM17.6835 10.7334L17.7362 10.6376L17.995 10.767L17.8752 11.0066C17.8368 11.0161 17.7889 11.0209 17.7314 11.0161C17.6762 11.0101 17.6226 10.9938 17.5733 10.9682C17.5153 10.94 17.4657 10.897 17.4295 10.8436C17.3966 10.794 17.3798 10.7354 17.3816 10.6759C17.3841 10.614 17.4004 10.5534 17.4295 10.4986C17.4583 10.441 17.5012 10.3916 17.5541 10.3549C17.6048 10.3199 17.6651 10.3014 17.7266 10.3022C17.7745 10.3022 17.8225 10.3166 17.88 10.3501C17.9566 10.3836 18.0045 10.4316 18.0285 10.4843C18.0534 10.5366 18.0585 10.5962 18.0429 10.652L17.9135 10.6136C17.9214 10.5815 17.918 10.5477 17.9039 10.5178C17.8895 10.4891 17.8656 10.4699 17.8272 10.4507C17.8049 10.438 17.7801 10.4301 17.7545 10.4276C17.7289 10.4251 17.7031 10.4281 17.6787 10.4363C17.6308 10.4507 17.5877 10.4938 17.5541 10.5609C17.5206 10.628 17.5062 10.6903 17.5206 10.743C17.5272 10.768 17.5392 10.7913 17.5558 10.8111C17.5723 10.831 17.593 10.847 17.6164 10.858C17.6404 10.8724 17.6691 10.882 17.6979 10.882C17.7265 10.8863 17.7555 10.8863 17.7841 10.882L17.8225 10.8053L17.6835 10.7334ZM13.3614 9.66489L13.4572 8.99406L13.6585 9.0276L13.7112 9.49718L13.8981 9.06593L14.0993 9.09468L14.0035 9.75593L13.8741 9.73676L13.9556 9.21447L13.7447 9.7176L13.6154 9.69843L13.5627 9.15697L13.486 9.68406L13.3614 9.66489ZM12.6858 9.58343L12.7481 8.9126L13.2416 8.96051L13.232 9.07551L12.8727 9.04197L12.8583 9.18572L13.1937 9.21926L13.1793 9.33426L12.8439 9.30072L12.8295 9.48281L13.2033 9.51635L13.1937 9.63135L12.6858 9.58343Z" fill="#309E3A"/>
<path d="M10.4482 9.16678C10.4482 9.0949 10.4625 9.04219 10.4817 8.99428C10.4985 8.9602 10.5212 8.92937 10.5488 8.90324C10.5734 8.87845 10.6027 8.85889 10.635 8.84574C10.683 8.83136 10.7309 8.82178 10.7788 8.82178C10.8794 8.82178 10.9561 8.86011 11.0184 8.91761C11.048 8.95424 11.0701 8.99641 11.0832 9.04166C11.0964 9.08691 11.1004 9.13433 11.095 9.18115C11.095 9.28657 11.0615 9.37282 10.9992 9.43511C10.9672 9.4647 10.9293 9.48724 10.8881 9.50127C10.8468 9.5153 10.803 9.52051 10.7596 9.51657C10.7168 9.517 10.6743 9.50873 10.6348 9.49226C10.5952 9.47578 10.5595 9.45145 10.5296 9.42074C10.47 9.35016 10.4407 9.25887 10.4482 9.16678Z" fill="#309E3A"/>
<path d="M10.5872 9.16661C10.5872 9.23849 10.6015 9.29599 10.6351 9.33911C10.6686 9.37744 10.7117 9.4014 10.7692 9.4014C10.7941 9.40314 10.8191 9.39932 10.8423 9.3902C10.8655 9.38108 10.8864 9.3669 10.9034 9.3487C10.937 9.31036 10.9513 9.25286 10.9561 9.1714C10.9561 9.09474 10.9465 9.03724 10.9082 8.9989C10.8926 8.97959 10.8729 8.96398 10.8505 8.95321C10.8281 8.94244 10.8037 8.93677 10.7788 8.93661C10.7536 8.93581 10.7285 8.94054 10.7054 8.95047C10.6822 8.96041 10.6615 8.9753 10.6447 8.99411C10.6063 9.03244 10.5919 9.08995 10.5872 9.16661Z" fill="#F7FFFF"/>
<path d="M11.2388 9.51117L11.2484 8.84033H11.5359C11.6077 8.84033 11.6556 8.84992 11.6892 8.86429C11.7227 8.87387 11.7467 8.89783 11.7659 8.92658C11.785 8.95533 11.7946 8.99367 11.7946 9.03679C11.795 9.08289 11.7779 9.12741 11.7467 9.16137C11.7113 9.19456 11.6657 9.21481 11.6173 9.21887L11.6892 9.27637C11.7084 9.29554 11.7323 9.33387 11.7611 9.38658L11.8425 9.52075H11.6796L11.5838 9.36742L11.5167 9.27158C11.5051 9.2584 11.4902 9.24849 11.4736 9.24283C11.4518 9.23648 11.4292 9.23325 11.4065 9.23325H11.3777V9.51117H11.2388Z" fill="#309E3A"/>
<path d="M11.3823 9.12807H11.4782C11.5452 9.12807 11.5884 9.12807 11.6027 9.11848C11.6171 9.11848 11.6315 9.10411 11.6411 9.09453C11.6507 9.08494 11.6554 9.06098 11.6554 9.04661C11.6554 9.01786 11.6507 8.99869 11.6363 8.98911C11.6267 8.97473 11.6075 8.96515 11.5884 8.96036H11.4925L11.3823 8.95557V9.12807Z" fill="white"/>
<path d="M12.0052 8.87402L12.2544 8.8884C12.3071 8.8884 12.3502 8.89319 12.379 8.90277C12.4163 8.9163 12.4493 8.93944 12.4748 8.96986C12.5024 9.00336 12.5221 9.04267 12.5323 9.08486C12.5467 9.12798 12.5515 9.18069 12.5467 9.24298C12.5466 9.29189 12.5385 9.34045 12.5227 9.38673C12.5036 9.43465 12.4748 9.47298 12.4413 9.50173C12.4133 9.52473 12.3806 9.54112 12.3454 9.54965C12.3167 9.55923 12.2736 9.55923 12.2256 9.55923L11.9717 9.54486L12.0052 8.87402Z" fill="#309E3A"/>
<path d="M12.1348 8.99414L12.1108 9.43977H12.2929C12.3169 9.43977 12.336 9.43018 12.3504 9.41581C12.3648 9.40143 12.3792 9.38227 12.3888 9.35352C12.3983 9.32477 12.4079 9.28164 12.4079 9.22893L12.4031 9.10914C12.3963 9.08387 12.3831 9.06078 12.3648 9.04206C12.3489 9.02605 12.3291 9.01449 12.3073 9.00852C12.2711 9.00045 12.2342 8.99564 12.1971 8.99414H12.1348Z" fill="white"/>
<path d="M15.2925 10.0726L15.4506 9.4209L15.6614 9.46882L15.8148 9.51673C15.8483 9.5359 15.8771 9.56465 15.8914 9.60777C15.9106 9.64611 15.9106 9.68923 15.901 9.74194C15.8914 9.78027 15.8771 9.81381 15.8531 9.83777C15.8355 9.85881 15.8135 9.87573 15.7887 9.88732C15.7639 9.89892 15.7368 9.9049 15.7094 9.90486C15.6758 9.90486 15.6279 9.89527 15.5656 9.8809L15.4841 9.85694L15.4266 10.1061L15.2925 10.0726Z" fill="#309E3A"/>
<path d="M15.5513 9.56445L15.5129 9.74654L15.5848 9.7657C15.6327 9.77529 15.6711 9.78487 15.6902 9.78008C15.7089 9.77749 15.7263 9.76919 15.74 9.75632C15.7537 9.74345 15.7631 9.72664 15.7669 9.7082C15.7669 9.68424 15.7669 9.66508 15.7573 9.64591C15.7468 9.62643 15.7299 9.6112 15.7094 9.60279L15.6184 9.57883L15.5561 9.56445H15.5513Z" fill="white"/>
<path d="M15.9153 10.2585L16.1405 9.62598L16.404 9.72181C16.4759 9.74577 16.519 9.76973 16.5478 9.78889C16.5717 9.81285 16.5909 9.83681 16.5957 9.87514C16.6005 9.91348 16.6053 9.94702 16.5957 9.98535C16.5765 10.0333 16.5478 10.0668 16.5094 10.0908C16.4711 10.1099 16.4232 10.1147 16.3657 10.1051C16.3849 10.1291 16.404 10.1531 16.4136 10.1818L16.4519 10.3112L16.4807 10.4597L16.3322 10.407L16.2842 10.2345C16.2755 10.1955 16.2643 10.1571 16.2507 10.1195C16.2443 10.1046 16.2345 10.0915 16.2219 10.0812C16.2124 10.0668 16.1932 10.0572 16.1597 10.0476L16.1357 10.0381L16.0399 10.3064L15.9153 10.2585Z" fill="#309E3A"/>
<path d="M16.174 9.93791L16.265 9.97145C16.3273 9.99541 16.3656 10.005 16.3848 10.005C16.3992 10.005 16.4136 10.005 16.4279 9.99062C16.4423 9.98103 16.4519 9.96666 16.4567 9.94749C16.4663 9.92833 16.4663 9.90916 16.4567 9.88999C16.4496 9.87142 16.436 9.85608 16.4184 9.84687L16.3225 9.81333L16.2267 9.77979L16.1692 9.93791H16.174Z" fill="white"/>
<path d="M16.7012 10.2353C16.7176 10.1792 16.7453 10.127 16.7826 10.082C16.8068 10.0531 16.8361 10.0287 16.8689 10.0101C16.8986 9.99333 16.931 9.98197 16.9647 9.97656C17.0126 9.97656 17.0605 9.97656 17.1132 9.99573C17.1561 10.0063 17.1962 10.0259 17.2309 10.0532C17.2656 10.0804 17.2941 10.1147 17.3145 10.1539C17.3528 10.2305 17.3528 10.3216 17.3241 10.427C17.3004 10.5175 17.2418 10.5951 17.1612 10.6426C17.0893 10.6857 17.003 10.6905 16.912 10.6618C16.8693 10.6509 16.8293 10.6312 16.7947 10.604C16.76 10.5767 16.7314 10.5426 16.7107 10.5036C16.6915 10.4618 16.6808 10.4165 16.6792 10.3704C16.6775 10.3244 16.685 10.2785 16.7012 10.2353Z" fill="#309E3A"/>
<path d="M16.8353 10.2733C16.8161 10.3452 16.8114 10.4075 16.8353 10.4554C16.8593 10.5033 16.8928 10.5321 16.9455 10.5513C16.9934 10.5656 17.0414 10.5608 17.0893 10.5321C17.1372 10.5081 17.1659 10.4554 17.1899 10.3788C17.2139 10.3069 17.2139 10.2494 17.1899 10.2015C17.1804 10.1787 17.1661 10.1584 17.1479 10.1418C17.1297 10.1252 17.108 10.1129 17.0845 10.1056C17.0609 10.0975 17.0358 10.0946 17.011 10.097C16.9862 10.0995 16.9622 10.1074 16.9407 10.12C16.8928 10.1488 16.8593 10.1967 16.8353 10.2733Z" fill="white"/>
<path d="M18.0095 11.1694L18.3162 10.5752L18.5701 10.7046C18.618 10.7275 18.6617 10.7583 18.6995 10.7956C18.7235 10.8196 18.7379 10.8483 18.7379 10.8867C18.7379 10.925 18.7379 10.9585 18.7187 10.9921C18.7003 11.0352 18.6659 11.0695 18.6229 11.0879C18.5749 11.0975 18.527 11.0975 18.4743 11.0783C18.4935 11.1071 18.5031 11.1358 18.5126 11.1598C18.5222 11.1885 18.527 11.2317 18.5318 11.2939L18.5414 11.4473L18.3976 11.3754L18.3785 11.1981C18.3762 11.1579 18.3714 11.1179 18.3641 11.0783C18.3608 11.0604 18.3525 11.0438 18.3401 11.0304L18.2826 10.9969L18.2587 10.9825L18.1293 11.2317L18.0095 11.1694Z" fill="#309E3A"/>
<path d="M18.3064 10.8867L18.3974 10.9346C18.4549 10.9634 18.4933 10.9826 18.5076 10.9826C18.522 10.9826 18.5412 10.9826 18.5556 10.973C18.5699 10.9682 18.5795 10.9538 18.5891 10.9346C18.5987 10.9155 18.6035 10.8963 18.5987 10.8771C18.5928 10.8581 18.581 10.8413 18.5651 10.8292C18.5371 10.812 18.5083 10.796 18.4789 10.7813L18.3831 10.7334L18.3064 10.8867Z" fill="white"/>
<path d="M20.4913 12.3962C20.5223 12.3469 20.5631 12.3045 20.6111 12.2716C20.6434 12.251 20.6791 12.2363 20.7165 12.2285C20.7513 12.2214 20.7872 12.2214 20.8219 12.2285C20.8699 12.2381 20.913 12.2572 20.9561 12.286C20.9934 12.3092 21.0254 12.3399 21.0502 12.3762C21.0749 12.4125 21.0919 12.4536 21.0999 12.4968C21.1142 12.5783 21.0903 12.6693 21.0328 12.7603C20.9847 12.8395 20.9071 12.8964 20.8172 12.9185C20.7743 12.9277 20.7299 12.9278 20.6869 12.9187C20.644 12.9097 20.6035 12.8916 20.568 12.8658C20.5307 12.8425 20.4987 12.8118 20.4739 12.7755C20.4492 12.7392 20.4322 12.6981 20.4242 12.6549C20.4099 12.5687 20.4338 12.4824 20.4913 12.3962Z" fill="#309E3A"/>
<path d="M20.6112 12.4727C20.5633 12.535 20.5489 12.5925 20.5585 12.6452C20.562 12.6695 20.5707 12.6927 20.5839 12.7134C20.5971 12.7341 20.6146 12.7517 20.6351 12.765C20.6831 12.7986 20.731 12.8082 20.7789 12.7938C20.8268 12.7794 20.8747 12.7459 20.9178 12.6788C20.961 12.6117 20.9801 12.5542 20.9706 12.5063C20.9658 12.4584 20.937 12.4152 20.8939 12.3817C20.8508 12.3482 20.798 12.3434 20.7501 12.3577C20.7022 12.3673 20.6543 12.4057 20.6064 12.4727H20.6112Z" fill="white"/>
<path d="M14.5354 9.79869L14.6456 9.3291L14.9906 9.41056L14.9762 9.48723L14.7223 9.42973L14.6983 9.53514L14.9331 9.58785L14.9139 9.66931L14.6792 9.61181L14.6504 9.74119L14.9139 9.80348L14.8948 9.88014L14.5354 9.79869Z" fill="#309E3A"/>
</g>
<defs>
<clipPath id="clip0_42_415">
<rect x="0.0742188" width="30.6667" height="23" rx="5.96296" fill="white"/>
</clipPath>
</defs>
</svg>
