<svg width="31" height="23" viewBox="0 0 31 23" fill="none" xmlns="http://www.w3.org/2000/svg">
<g clip-path="url(#clip0_123_158)">
<path d="M0 0H30.67V23.0025H0" fill="#BD3D44"/>
<path d="M0 2.6499H30.67ZM0 6.18174H30.67ZM0 9.72796H30.67ZM0 13.2742H30.67ZM0 16.8204H30.67ZM0 20.3666H30.67Z" fill="black"/>
<path d="M0 1.76367V3.53678H30.67V1.76367H0ZM0 5.29551V7.06862H30.67V5.29551H0ZM0 8.84173V10.6148H30.67V8.84173H0ZM0 12.388V14.1611H30.67V12.388H0ZM0 15.9342V17.7073H30.67V15.9342H0ZM0 19.4804V21.2535H30.67V19.4804H0Z" fill="white"/>
<path d="M0 0H17.4819V12.3878H0" fill="#192F5D"/>
<path d="M16.006 10.4472L16.4373 11.7411L15.3351 10.9264H16.6769L15.5747 11.7411L16.006 10.4472ZM13.1307 10.4472L13.562 11.7411L12.4598 10.9264H13.8016L12.6994 11.7411L13.1307 10.4472ZM10.2075 10.4472L10.6388 11.7411L9.53655 10.9264H10.8784L9.77616 11.7411L10.2075 10.4472ZM7.28422 10.4472L7.71552 11.7411L6.61331 10.9264H7.95513L6.85292 11.7411L7.28422 10.4472ZM4.36099 10.4472L4.79228 11.7411L3.69008 10.9264H5.03189L3.92969 11.7411L4.36099 10.4472ZM1.43775 10.4472L1.86905 11.7411L0.766846 10.9264H2.10866L1.00646 11.7411L1.43775 10.4472ZM14.5683 9.2012L14.9996 10.4951L13.8974 9.68042H15.2393L14.137 10.4951L14.5683 9.2012ZM11.6451 9.2012L12.0764 10.4951L10.9742 9.68042H12.316L11.2138 10.4951L11.6451 9.2012ZM8.7698 9.2012L9.2011 10.4951L8.09889 9.68042H9.44071L8.3385 10.4951L8.7698 9.2012ZM5.84656 9.2012L6.27786 10.4951L5.17566 9.68042H6.51747L5.41527 10.4951L5.84656 9.2012ZM2.92333 9.2012L3.35463 10.4951L2.25242 9.68042H3.59424L2.49203 10.4951L2.92333 9.2012ZM16.006 7.95523L16.4373 9.24913L15.3351 8.43445H16.6769L15.5747 9.24913L16.006 7.95523ZM13.1307 7.95523L13.562 9.24913L12.4598 8.43445H13.8016L12.6994 9.24913L13.1307 7.95523ZM10.2075 7.95523L10.6388 9.24913L9.53655 8.43445H10.8784L9.77616 9.24913L10.2075 7.95523ZM7.28422 7.95523L7.71552 9.24913L6.61331 8.43445H7.95513L6.85292 9.24913L7.28422 7.95523ZM4.36099 7.95523L4.79228 9.24913L3.69008 8.43445H5.03189L3.92969 9.24913L4.36099 7.95523ZM1.43775 7.95523L1.86905 9.24913L0.766846 8.43445H2.10866L1.00646 9.24913L1.43775 7.95523ZM14.5683 6.75719L14.9996 8.05108L13.8974 7.23641H15.2393L14.137 8.05108L14.5683 6.75719ZM11.6451 6.75719L12.0764 8.05108L10.9742 7.23641H12.316L11.2138 8.05108L11.6451 6.75719ZM8.7698 6.75719L9.2011 8.05108L8.09889 7.23641H9.44071L8.3385 8.05108L8.7698 6.75719ZM5.84656 6.75719L6.27786 8.05108L5.17566 7.23641H6.51747L5.41527 8.05108L5.84656 6.75719ZM2.92333 6.75719L3.35463 8.05108L2.25242 7.23641H3.59424L2.49203 8.05108L2.92333 6.75719ZM16.006 5.51122L16.4373 6.80511L15.3351 5.99044H16.6769L15.5747 6.80511L16.006 5.51122ZM13.1307 5.51122L13.562 6.80511L12.4598 5.99044H13.8016L12.6994 6.80511L13.1307 5.51122ZM10.2075 5.51122L10.6388 6.80511L9.53655 5.99044H10.8784L9.77616 6.80511L10.2075 5.51122ZM7.28422 5.51122L7.71552 6.80511L6.61331 5.99044H7.95513L6.85292 6.80511L7.28422 5.51122ZM4.36099 5.51122L4.79228 6.80511L3.69008 5.99044H5.03189L3.92969 6.80511L4.36099 5.51122ZM1.43775 5.51122L1.86905 6.80511L0.766846 5.99044H2.10866L1.00646 6.80511L1.43775 5.51122ZM14.5683 4.26525L14.9996 5.55914L13.8974 4.74447H15.2393L14.137 5.55914L14.5683 4.26525ZM11.6451 4.26525L12.0764 5.55914L10.9742 4.74447H12.316L11.2138 5.55914L11.6451 4.26525ZM8.7698 4.26525L9.2011 5.55914L8.09889 4.74447H9.44071L8.3385 5.55914L8.7698 4.26525ZM5.84656 4.26525L6.27786 5.55914L5.17566 4.74447H6.51747L5.41527 5.55914L5.84656 4.26525ZM2.92333 4.26525L3.35463 5.55914L2.25242 4.74447H3.59424L2.49203 5.55914L2.92333 4.26525ZM16.006 3.01928L16.4373 4.31317L15.3351 3.4985H16.6769L15.5747 4.31317L16.006 3.01928ZM13.1307 3.01928L13.562 4.31317L12.4598 3.4985H13.8016L12.6994 4.31317L13.1307 3.01928ZM10.2075 3.01928L10.6388 4.31317L9.53655 3.4985H10.8784L9.77616 4.31317L10.2075 3.01928ZM7.28422 3.01928L7.71552 4.31317L6.61331 3.4985H7.95513L6.85292 4.31317L7.28422 3.01928ZM4.36099 3.01928L4.79228 4.31317L3.69008 3.4985H5.03189L3.92969 4.31317L4.36099 3.01928ZM1.43775 3.01928L1.86905 4.31317L0.766846 3.4985H2.10866L1.00646 4.31317L1.43775 3.01928ZM14.5683 1.77331L14.9996 3.0672L13.8974 2.25253H15.2393L14.137 3.0672L14.5683 1.77331ZM11.6451 1.77331L12.0764 3.0672L10.9742 2.25253H12.316L11.2138 3.0672L11.6451 1.77331ZM8.7698 1.77331L9.2011 3.0672L8.09889 2.25253H9.44071L8.3385 3.0672L8.7698 1.77331ZM5.84656 1.77331L6.27786 3.0672L5.17566 2.25253H6.51747L5.41527 3.0672L5.84656 1.77331ZM2.92333 1.77331L3.35463 3.0672L2.25242 2.25253H3.59424L2.49203 3.0672L2.92333 1.77331ZM16.006 0.527344L16.4373 1.82123L15.3351 1.00656H16.6769L15.5747 1.82123L16.006 0.527344ZM13.1307 0.527344L13.562 1.82123L12.4598 1.00656H13.8016L12.6994 1.82123L13.1307 0.527344ZM10.2075 0.527344L10.6388 1.82123L9.53655 1.00656H10.8784L9.77616 1.82123L10.2075 0.527344ZM7.28422 0.527344L7.71552 1.82123L6.61331 1.00656H7.95513L6.85292 1.82123L7.28422 0.527344ZM4.36099 0.527344L4.79228 1.82123L3.69008 1.00656H5.03189L3.92969 1.82123L4.36099 0.527344ZM1.43775 0.527344L1.86905 1.82123L0.766846 1.00656H2.10866L1.00646 1.82123L1.43775 0.527344Z" fill="white"/>
</g>
<defs>
<clipPath id="clip0_123_158">
<rect width="30.67" height="23.0025" rx="5.96" fill="white"/>
</clipPath>
</defs>
</svg>
